<mxfile host="65bd71144e">
    <diagram id="aeK9TVIWi9eqSDKCjZsI" name="Page-1">
        <mxGraphModel dx="1261" dy="881" grid="0" gridSize="10" guides="1" tooltips="1" connect="1" arrows="1" fold="1" page="1" pageScale="1" pageWidth="4681" pageHeight="3300" math="0" shadow="0">
            <root>
                <mxCell id="0"/>
                <mxCell id="1" parent="0"/>
                <mxCell id="2" value="https://bergle.com" style="rounded=0;whiteSpace=wrap;html=1;verticalAlign=bottom;labelPosition=center;verticalLabelPosition=top;align=left;fontStyle=0;fontSize=20;" vertex="1" parent="1">
                    <mxGeometry x="84" y="57" width="920" height="470" as="geometry"/>
                </mxCell>
                <mxCell id="D5PJ7m-70zFiwvf29XOF-29" value="Leitor" style="swimlane;childLayout=stackLayout;horizontal=1;startSize=30;horizontalStack=0;rounded=1;fontSize=14;fontStyle=1;strokeWidth=2;resizeParent=0;resizeLast=1;shadow=0;dashed=0;align=center;" parent="1" vertex="1">
                    <mxGeometry x="407" y="636" width="160" height="90" as="geometry"/>
                </mxCell>
                <mxCell id="D5PJ7m-70zFiwvf29XOF-30" value="+ Id&#10;+ Name" style="align=left;strokeColor=none;fillColor=none;spacingLeft=4;fontSize=12;verticalAlign=top;resizable=0;rotatable=0;part=1;" parent="D5PJ7m-70zFiwvf29XOF-29" vertex="1">
                    <mxGeometry y="30" width="160" height="60" as="geometry"/>
                </mxCell>
                <mxCell id="D5PJ7m-70zFiwvf29XOF-31" value="Avaliação" style="swimlane;childLayout=stackLayout;horizontal=1;startSize=30;horizontalStack=0;rounded=1;fontSize=14;fontStyle=1;strokeWidth=2;resizeParent=0;resizeLast=1;shadow=0;dashed=0;align=center;" parent="1" vertex="1">
                    <mxGeometry x="767" y="676" width="160" height="120" as="geometry"/>
                </mxCell>
                <mxCell id="D5PJ7m-70zFiwvf29XOF-32" value="+ Id&#10;+ Nota&#10;+ Descrição&#10;+ Data&#10;+ LeitorId&#10;" style="align=left;strokeColor=none;fillColor=none;spacingLeft=4;fontSize=12;verticalAlign=top;resizable=0;rotatable=0;part=1;" parent="D5PJ7m-70zFiwvf29XOF-31" vertex="1">
                    <mxGeometry y="30" width="160" height="90" as="geometry"/>
                </mxCell>
                <mxCell id="D5PJ7m-70zFiwvf29XOF-33" value="Livro" style="swimlane;childLayout=stackLayout;horizontal=1;startSize=30;horizontalStack=0;rounded=1;fontSize=14;fontStyle=1;strokeWidth=2;resizeParent=0;resizeLast=1;shadow=0;dashed=0;align=center;" parent="1" vertex="1">
                    <mxGeometry x="407" y="816" width="160" height="90" as="geometry"/>
                </mxCell>
                <mxCell id="D5PJ7m-70zFiwvf29XOF-34" value="+ Id&#10;+ Título&#10;+ CategoriaId&#10;" style="align=left;strokeColor=none;fillColor=none;spacingLeft=4;fontSize=12;verticalAlign=top;resizable=0;rotatable=0;part=1;" parent="D5PJ7m-70zFiwvf29XOF-33" vertex="1">
                    <mxGeometry y="30" width="160" height="60" as="geometry"/>
                </mxCell>
                <mxCell id="D5PJ7m-70zFiwvf29XOF-35" value="Autor" style="swimlane;childLayout=stackLayout;horizontal=1;startSize=30;horizontalStack=0;rounded=1;fontSize=14;fontStyle=1;strokeWidth=2;resizeParent=0;resizeLast=1;shadow=0;dashed=0;align=center;comic=0;moveCells=0;treeMoving=0;treeFolding=0;autosize=0;" parent="1" vertex="1">
                    <mxGeometry x="558" y="1027" width="160" height="81" as="geometry"/>
                </mxCell>
                <mxCell id="D5PJ7m-70zFiwvf29XOF-36" value="+ Id&#10;+ Name&#10;" style="align=left;strokeColor=none;fillColor=none;spacingLeft=4;fontSize=12;verticalAlign=top;resizable=0;rotatable=0;part=1;" parent="D5PJ7m-70zFiwvf29XOF-35" vertex="1">
                    <mxGeometry y="30" width="160" height="51" as="geometry"/>
                </mxCell>
                <mxCell id="D5PJ7m-70zFiwvf29XOF-37" value="Categoria" style="swimlane;childLayout=stackLayout;horizontal=1;startSize=30;horizontalStack=0;rounded=1;fontSize=14;fontStyle=1;strokeWidth=2;resizeParent=0;resizeLast=1;shadow=0;dashed=0;align=center;" parent="1" vertex="1">
                    <mxGeometry x="218" y="982" width="160" height="89" as="geometry"/>
                </mxCell>
                <mxCell id="D5PJ7m-70zFiwvf29XOF-38" value="+ Id&#10;+ Name&#10;+ Descrição" style="align=left;strokeColor=none;fillColor=none;spacingLeft=4;fontSize=12;verticalAlign=top;resizable=0;rotatable=0;part=1;" parent="D5PJ7m-70zFiwvf29XOF-37" vertex="1">
                    <mxGeometry y="30" width="160" height="59" as="geometry"/>
                </mxCell>
                <mxCell id="D5PJ7m-70zFiwvf29XOF-51" value="" style="endArrow=none;html=1;rounded=1;flowAnimation=1;exitX=1;exitY=0.5;exitDx=0;exitDy=0;orthogonal=0;" parent="1" source="D5PJ7m-70zFiwvf29XOF-30" edge="1">
                    <mxGeometry relative="1" as="geometry">
                        <mxPoint x="597" y="696" as="sourcePoint"/>
                        <mxPoint x="765" y="694" as="targetPoint"/>
                        <Array as="points">
                            <mxPoint x="667" y="696"/>
                            <mxPoint x="727" y="696"/>
                        </Array>
                    </mxGeometry>
                </mxCell>
                <mxCell id="D5PJ7m-70zFiwvf29XOF-52" value="Pode fazer zero ou mais" style="edgeLabel;html=1;align=center;verticalAlign=middle;resizable=0;points=[];" parent="D5PJ7m-70zFiwvf29XOF-51" vertex="1" connectable="0">
                    <mxGeometry x="-0.1189" relative="1" as="geometry">
                        <mxPoint x="4" y="10" as="offset"/>
                    </mxGeometry>
                </mxCell>
                <mxCell id="D5PJ7m-70zFiwvf29XOF-55" value="" style="endArrow=none;html=1;rounded=1;flowAnimation=1;exitX=0;exitY=1;exitDx=0;exitDy=0;entryX=1;entryY=0.25;entryDx=0;entryDy=0;" parent="1" source="D5PJ7m-70zFiwvf29XOF-32" target="D5PJ7m-70zFiwvf29XOF-33" edge="1">
                    <mxGeometry relative="1" as="geometry">
                        <mxPoint x="747" y="836" as="sourcePoint"/>
                        <mxPoint x="607" y="836" as="targetPoint"/>
                        <Array as="points">
                            <mxPoint x="677" y="839"/>
                        </Array>
                    </mxGeometry>
                </mxCell>
                <mxCell id="D5PJ7m-70zFiwvf29XOF-56" value="Está relacionada à um único" style="edgeLabel;html=1;align=center;verticalAlign=middle;resizable=0;points=[];" parent="D5PJ7m-70zFiwvf29XOF-55" vertex="1" connectable="0">
                    <mxGeometry x="0.148" y="1" relative="1" as="geometry">
                        <mxPoint x="11" y="6" as="offset"/>
                    </mxGeometry>
                </mxCell>
                <mxCell id="D5PJ7m-70zFiwvf29XOF-57" value="" style="endArrow=none;html=1;rounded=0;flowAnimation=1;entryX=0.5;entryY=0;entryDx=0;entryDy=0;exitX=0.5;exitY=1;exitDx=0;exitDy=0;" parent="1" source="D5PJ7m-70zFiwvf29XOF-30" target="D5PJ7m-70zFiwvf29XOF-33" edge="1">
                    <mxGeometry relative="1" as="geometry">
                        <mxPoint x="417" y="766" as="sourcePoint"/>
                        <mxPoint x="557" y="766" as="targetPoint"/>
                    </mxGeometry>
                </mxCell>
                <mxCell id="D5PJ7m-70zFiwvf29XOF-58" value="Pode avaliar zero ou mais" style="edgeLabel;html=1;align=center;verticalAlign=middle;resizable=0;points=[];" parent="D5PJ7m-70zFiwvf29XOF-57" vertex="1" connectable="0">
                    <mxGeometry x="-0.518" relative="1" as="geometry">
                        <mxPoint y="19" as="offset"/>
                    </mxGeometry>
                </mxCell>
                <mxCell id="D5PJ7m-70zFiwvf29XOF-61" value="" style="endArrow=none;html=1;rounded=1;flowAnimation=1;exitX=1;exitY=0;exitDx=0;exitDy=0;orthogonal=0;entryX=0;entryY=0.25;entryDx=0;entryDy=0;" parent="1" source="D5PJ7m-70zFiwvf29XOF-33" target="D5PJ7m-70zFiwvf29XOF-32" edge="1">
                    <mxGeometry relative="1" as="geometry">
                        <mxPoint x="547" y="788" as="sourcePoint"/>
                        <mxPoint x="745" y="785.9999999999999" as="targetPoint"/>
                        <Array as="points">
                            <mxPoint x="657" y="751"/>
                            <mxPoint x="707" y="736"/>
                        </Array>
                    </mxGeometry>
                </mxCell>
                <mxCell id="D5PJ7m-70zFiwvf29XOF-62" value="Possui zero ou mais" style="edgeLabel;html=1;align=center;verticalAlign=middle;resizable=0;points=[];" parent="D5PJ7m-70zFiwvf29XOF-61" vertex="1" connectable="0">
                    <mxGeometry x="-0.1189" relative="1" as="geometry">
                        <mxPoint x="4" y="10" as="offset"/>
                    </mxGeometry>
                </mxCell>
                <mxCell id="D5PJ7m-70zFiwvf29XOF-67" value="" style="endArrow=none;html=1;rounded=1;flowAnimation=1;exitX=0;exitY=0.75;exitDx=0;exitDy=0;entryX=0.75;entryY=0;entryDx=0;entryDy=0;" parent="1" source="D5PJ7m-70zFiwvf29XOF-34" target="D5PJ7m-70zFiwvf29XOF-37" edge="1">
                    <mxGeometry relative="1" as="geometry">
                        <mxPoint x="277" y="936" as="sourcePoint"/>
                        <mxPoint x="417" y="936" as="targetPoint"/>
                        <Array as="points">
                            <mxPoint x="357" y="906"/>
                        </Array>
                    </mxGeometry>
                </mxCell>
                <mxCell id="D5PJ7m-70zFiwvf29XOF-68" value="Pertence à uma ou mais" style="edgeLabel;html=1;align=center;verticalAlign=middle;resizable=0;points=[];" parent="D5PJ7m-70zFiwvf29XOF-67" vertex="1" connectable="0">
                    <mxGeometry x="0.6962" y="1" relative="1" as="geometry">
                        <mxPoint y="-12" as="offset"/>
                    </mxGeometry>
                </mxCell>
                <mxCell id="D5PJ7m-70zFiwvf29XOF-69" value="" style="endArrow=none;html=1;rounded=1;flowAnimation=1;entryX=0;entryY=0.25;entryDx=0;entryDy=0;exitX=0.25;exitY=0;exitDx=0;exitDy=0;" parent="1" source="D5PJ7m-70zFiwvf29XOF-37" target="D5PJ7m-70zFiwvf29XOF-33" edge="1">
                    <mxGeometry relative="1" as="geometry">
                        <mxPoint x="237" y="860.6600000000001" as="sourcePoint"/>
                        <mxPoint x="377" y="860.6600000000001" as="targetPoint"/>
                        <Array as="points">
                            <mxPoint x="257" y="839"/>
                        </Array>
                    </mxGeometry>
                </mxCell>
                <mxCell id="D5PJ7m-70zFiwvf29XOF-70" value="Possui um ou mais" style="edgeLabel;html=1;align=center;verticalAlign=middle;resizable=0;points=[];" parent="D5PJ7m-70zFiwvf29XOF-69" vertex="1" connectable="0">
                    <mxGeometry x="-0.2116" y="-1" relative="1" as="geometry">
                        <mxPoint y="13" as="offset"/>
                    </mxGeometry>
                </mxCell>
                <mxCell id="D5PJ7m-70zFiwvf29XOF-71" value="" style="endArrow=none;html=1;rounded=1;flowAnimation=1;entryX=0.5;entryY=1;entryDx=0;entryDy=0;exitX=0.25;exitY=0;exitDx=0;exitDy=0;" parent="1" source="D5PJ7m-70zFiwvf29XOF-35" target="D5PJ7m-70zFiwvf29XOF-34" edge="1">
                    <mxGeometry relative="1" as="geometry">
                        <mxPoint x="427" y="966.0000000000001" as="sourcePoint"/>
                        <mxPoint x="567" y="966.0000000000001" as="targetPoint"/>
                        <Array as="points">
                            <mxPoint x="497" y="966"/>
                        </Array>
                    </mxGeometry>
                </mxCell>
                <mxCell id="D5PJ7m-70zFiwvf29XOF-72" value="Possui um ou mais" style="edgeLabel;html=1;align=center;verticalAlign=middle;resizable=0;points=[];" parent="D5PJ7m-70zFiwvf29XOF-71" vertex="1" connectable="0">
                    <mxGeometry x="0.5025" relative="1" as="geometry">
                        <mxPoint as="offset"/>
                    </mxGeometry>
                </mxCell>
                <mxCell id="D5PJ7m-70zFiwvf29XOF-73" value="" style="endArrow=none;html=1;rounded=1;flowAnimation=1;exitX=1;exitY=0.75;exitDx=0;exitDy=0;entryX=0.75;entryY=0;entryDx=0;entryDy=0;" parent="1" source="D5PJ7m-70zFiwvf29XOF-34" target="D5PJ7m-70zFiwvf29XOF-35" edge="1">
                    <mxGeometry relative="1" as="geometry">
                        <mxPoint x="597" y="906.0000000000001" as="sourcePoint"/>
                        <mxPoint x="737" y="906.0000000000001" as="targetPoint"/>
                        <Array as="points">
                            <mxPoint x="677" y="891"/>
                        </Array>
                    </mxGeometry>
                </mxCell>
                <mxCell id="D5PJ7m-70zFiwvf29XOF-74" value="Possui um ou mais" style="edgeLabel;html=1;align=center;verticalAlign=middle;resizable=0;points=[];" parent="D5PJ7m-70zFiwvf29XOF-73" vertex="1" connectable="0">
                    <mxGeometry x="0.4133" y="1" relative="1" as="geometry">
                        <mxPoint as="offset"/>
                    </mxGeometry>
                </mxCell>
                <mxCell id="D5PJ7m-70zFiwvf29XOF-81" value="" style="endArrow=none;html=1;rounded=1;flowAnimation=1;" parent="1" edge="1">
                    <mxGeometry relative="1" as="geometry">
                        <mxPoint x="143" y="724.8199999999999" as="sourcePoint"/>
                        <mxPoint x="283" y="724.8199999999999" as="targetPoint"/>
                    </mxGeometry>
                </mxCell>
                <mxCell id="3" value="Bergle" style="rounded=1;whiteSpace=wrap;html=1;fontSize=20;align=center;verticalAlign=middle;fontStyle=1;" vertex="1" parent="1">
                    <mxGeometry x="100" y="75" width="120" height="60" as="geometry"/>
                </mxCell>
                <mxCell id="4" value="Books" style="rounded=1;whiteSpace=wrap;html=1;fontSize=20;align=center;verticalAlign=middle;fontStyle=0" vertex="1" parent="1">
                    <mxGeometry x="402" y="84" width="105" height="42" as="geometry"/>
                </mxCell>
                <mxCell id="5" value="Authors" style="rounded=1;whiteSpace=wrap;html=1;fontSize=20;align=center;verticalAlign=middle;fontStyle=0" vertex="1" parent="1">
                    <mxGeometry x="533" y="84" width="105" height="42" as="geometry"/>
                </mxCell>
                <mxCell id="6" value="Publishers" style="rounded=1;whiteSpace=wrap;html=1;fontSize=20;align=center;verticalAlign=middle;fontStyle=0" vertex="1" parent="1">
                    <mxGeometry x="664" y="84" width="113" height="42" as="geometry"/>
                </mxCell>
                <mxCell id="7" value="Login" style="ellipse;whiteSpace=wrap;html=1;fontSize=20;align=center;verticalAlign=middle;" vertex="1" parent="1">
                    <mxGeometry x="854" y="74" width="120" height="61" as="geometry"/>
                </mxCell>
                <mxCell id="9" value="" style="pointerEvents=1;shadow=0;dashed=0;html=1;strokeColor=none;fillColor=#505050;labelPosition=center;verticalLabelPosition=bottom;verticalAlign=top;outlineConnect=0;align=center;shape=mxgraph.office.concepts.address_book;fontSize=20;" vertex="1" parent="1">
                    <mxGeometry x="702" y="200" width="252" height="270" as="geometry"/>
                </mxCell>
                <mxCell id="11" value="&lt;div&gt;&lt;h2 style=&quot;&quot;&gt;&lt;font style=&quot;font-size: 22px&quot;&gt;What is Lorem Ipsum?&lt;/font&gt;&lt;/h2&gt;&lt;p style=&quot;font-size: 14px;&quot;&gt;&lt;strong&gt;Lorem Ipsum&lt;/strong&gt; is simply dummy text of the printing and&lt;br&gt; typesetting industry. Lorem Ipsum has been the industry's standard &lt;br&gt;dummy text ever since the 1500s, when an unknown printer took a galley &lt;br&gt;of type and scrambled it to make a type specimen book. It has survived &lt;br&gt;not only five centuries, but also the leap into electronic typesetting, &lt;br&gt;remaining essentially unchanged. It was popularised in the 1960s with &lt;br&gt;the release of Letraset sheets containing Lorem Ipsum passages, and more&lt;br&gt; recently with desktop publishing software like Aldus PageMaker &lt;br&gt;including versions of Lorem Ipsum.&lt;/p&gt;&lt;/div&gt;" style="text;html=1;strokeColor=none;fillColor=none;align=left;verticalAlign=top;whiteSpace=wrap;rounded=0;fontSize=20;" vertex="1" parent="1">
                    <mxGeometry x="129" y="175" width="533" height="295" as="geometry"/>
                </mxCell>
                <mxCell id="12" value="https://bergle.com/books" style="rounded=0;whiteSpace=wrap;html=1;verticalAlign=bottom;labelPosition=center;verticalLabelPosition=top;align=left;fontStyle=0;fontSize=20;" vertex="1" parent="1">
                    <mxGeometry x="1123" y="57" width="920" height="470" as="geometry"/>
                </mxCell>
                <mxCell id="13" value="Bergle" style="rounded=1;whiteSpace=wrap;html=1;fontSize=20;align=center;verticalAlign=middle;fontStyle=1;" vertex="1" parent="1">
                    <mxGeometry x="1139" y="75" width="120" height="60" as="geometry"/>
                </mxCell>
                <mxCell id="14" value="Books" style="rounded=1;whiteSpace=wrap;html=1;fontSize=20;align=center;verticalAlign=middle;fontStyle=0" vertex="1" parent="1">
                    <mxGeometry x="1441" y="84" width="115" height="42" as="geometry"/>
                </mxCell>
                <mxCell id="15" value="Authors" style="rounded=1;whiteSpace=wrap;html=1;fontSize=20;align=center;verticalAlign=middle;fontStyle=0" vertex="1" parent="1">
                    <mxGeometry x="1572" y="84" width="114" height="42" as="geometry"/>
                </mxCell>
                <mxCell id="16" value="Publishers" style="rounded=1;whiteSpace=wrap;html=1;fontSize=20;align=center;verticalAlign=middle;fontStyle=0" vertex="1" parent="1">
                    <mxGeometry x="1703" y="84" width="132" height="42" as="geometry"/>
                </mxCell>
                <mxCell id="17" value="Login" style="ellipse;whiteSpace=wrap;html=1;fontSize=20;align=center;verticalAlign=middle;" vertex="1" parent="1">
                    <mxGeometry x="1893" y="74" width="120" height="61" as="geometry"/>
                </mxCell>
                <mxCell id="20" value="Title&lt;br&gt;" style="html=1;verticalLabelPosition=bottom;align=center;labelBackgroundColor=none;verticalAlign=top;strokeWidth=2;strokeColor=#0080F0;shadow=0;dashed=0;shape=mxgraph.ios7.icons.book;fontSize=20;" vertex="1" parent="1">
                    <mxGeometry x="1352" y="175" width="120" height="131" as="geometry"/>
                </mxCell>
                <mxCell id="21" value="Action" style="rounded=1;whiteSpace=wrap;html=1;fontSize=20;align=center;verticalAlign=middle;fontStyle=0;" vertex="1" parent="1">
                    <mxGeometry x="1142.5" y="182" width="130.5" height="42" as="geometry"/>
                </mxCell>
                <mxCell id="22" value="Sci-Fi" style="rounded=1;whiteSpace=wrap;html=1;fontSize=20;align=center;verticalAlign=middle;fontStyle=0" vertex="1" parent="1">
                    <mxGeometry x="1142.5" y="351" width="130.5" height="42" as="geometry"/>
                </mxCell>
                <mxCell id="23" value="Classics" style="rounded=1;whiteSpace=wrap;html=1;fontSize=20;align=center;verticalAlign=middle;fontStyle=0" vertex="1" parent="1">
                    <mxGeometry x="1142.5" y="241" width="130.5" height="42" as="geometry"/>
                </mxCell>
                <mxCell id="24" value="Fantasy" style="rounded=1;whiteSpace=wrap;html=1;fontSize=20;align=center;verticalAlign=middle;fontStyle=0" vertex="1" parent="1">
                    <mxGeometry x="1142.5" y="296" width="130.5" height="42" as="geometry"/>
                </mxCell>
                <mxCell id="25" value="Suspense" style="rounded=1;whiteSpace=wrap;html=1;fontSize=20;align=center;verticalAlign=middle;fontStyle=0" vertex="1" parent="1">
                    <mxGeometry x="1142.5" y="406" width="130.5" height="42" as="geometry"/>
                </mxCell>
                <mxCell id="26" value="History" style="rounded=1;whiteSpace=wrap;html=1;fontSize=20;align=center;verticalAlign=middle;fontStyle=0" vertex="1" parent="1">
                    <mxGeometry x="1142.5" y="461" width="130.5" height="42" as="geometry"/>
                </mxCell>
                <mxCell id="27" value="" style="html=1;verticalLabelPosition=bottom;align=center;labelBackgroundColor=#ffffff;verticalAlign=top;strokeWidth=2;strokeColor=#0080F0;shadow=0;dashed=0;shape=mxgraph.ios7.icons.bookmark;fontSize=20;" vertex="1" parent="1">
                    <mxGeometry x="1247" y="191" width="18" height="24" as="geometry"/>
                </mxCell>
                <mxCell id="28" value="" style="html=1;verticalLabelPosition=bottom;align=center;labelBackgroundColor=#ffffff;verticalAlign=top;strokeWidth=2;strokeColor=#0080F0;shadow=0;dashed=0;shape=mxgraph.ios7.icons.bookmark;fontSize=20;" vertex="1" parent="1">
                    <mxGeometry x="1533" y="93" width="18" height="24" as="geometry"/>
                </mxCell>
                <mxCell id="29" value="Title&lt;br&gt;" style="html=1;verticalLabelPosition=bottom;align=center;labelBackgroundColor=none;verticalAlign=top;strokeWidth=2;strokeColor=#0080F0;shadow=0;dashed=0;shape=mxgraph.ios7.icons.book;fontSize=20;" vertex="1" parent="1">
                    <mxGeometry x="1516" y="175" width="120" height="131" as="geometry"/>
                </mxCell>
                <mxCell id="30" value="Title&lt;br&gt;" style="html=1;verticalLabelPosition=bottom;align=center;labelBackgroundColor=none;verticalAlign=top;strokeWidth=2;strokeColor=#0080F0;shadow=0;dashed=0;shape=mxgraph.ios7.icons.book;fontSize=20;" vertex="1" parent="1">
                    <mxGeometry x="1680" y="176" width="120" height="131" as="geometry"/>
                </mxCell>
                <mxCell id="31" value="Title&lt;br&gt;" style="html=1;verticalLabelPosition=bottom;align=center;labelBackgroundColor=none;verticalAlign=top;strokeWidth=2;strokeColor=#0080F0;shadow=0;dashed=0;shape=mxgraph.ios7.icons.book;fontSize=20;" vertex="1" parent="1">
                    <mxGeometry x="1844" y="179" width="120" height="131" as="geometry"/>
                </mxCell>
                <mxCell id="32" value="Title&lt;br&gt;" style="html=1;verticalLabelPosition=bottom;align=center;labelBackgroundColor=none;verticalAlign=top;strokeWidth=2;strokeColor=#0080F0;shadow=0;dashed=0;shape=mxgraph.ios7.icons.book;fontSize=20;" vertex="1" parent="1">
                    <mxGeometry x="1352" y="351" width="120" height="131" as="geometry"/>
                </mxCell>
                <mxCell id="33" value="Title&lt;br&gt;" style="html=1;verticalLabelPosition=bottom;align=center;labelBackgroundColor=none;verticalAlign=top;strokeWidth=2;strokeColor=#0080F0;shadow=0;dashed=0;shape=mxgraph.ios7.icons.book;fontSize=20;" vertex="1" parent="1">
                    <mxGeometry x="1516" y="351" width="120" height="131" as="geometry"/>
                </mxCell>
                <mxCell id="34" value="Title&lt;br&gt;" style="html=1;verticalLabelPosition=bottom;align=center;labelBackgroundColor=none;verticalAlign=top;strokeWidth=2;strokeColor=#0080F0;shadow=0;dashed=0;shape=mxgraph.ios7.icons.book;fontSize=20;" vertex="1" parent="1">
                    <mxGeometry x="1680" y="352" width="120" height="131" as="geometry"/>
                </mxCell>
                <mxCell id="35" value="Title&lt;br&gt;" style="html=1;verticalLabelPosition=bottom;align=center;labelBackgroundColor=none;verticalAlign=top;strokeWidth=2;strokeColor=#0080F0;shadow=0;dashed=0;shape=mxgraph.ios7.icons.book;fontSize=20;" vertex="1" parent="1">
                    <mxGeometry x="1844" y="355" width="120" height="131" as="geometry"/>
                </mxCell>
            </root>
        </mxGraphModel>
    </diagram>
</mxfile>